<svg xmlns="http://www.w3.org/2000/svg" xmlns:xlink="http://www.w3.org/1999/xlink" width="24" height="24">
  <defs>
    <path id="a" d="M10.59 6.066v.562h-.526c-1.953 0-2.646 1.73-2.646 3.213.001.09.017.374.064.539l.111.385c.061.202-.046.313-.093.352-.108.085-.24.086-.395 0-.054.06-.133.476.127.815.062.081.107.12.133.14a.312.312 0 01.28-.028l.14.057.074.307c.105.491.345.944.69 1.312l.197.21.037.878h2.491v-.891l.096-.083c.44-.386.753-.911.88-1.481l.02-.09a.304.304 0 01.468-.193.69.69 0 00.13-.138c.26-.339.181-.755.108-.831-.056.016-.232.06-.361-.078-.06-.062-.118-.173-.063-.35.028-.094.065-.222.089-.332.038-.19.07-.522.07-.526l-.002-.71h.563v.736c-.003.04-.035.393-.081.613-.008.037-.016.077-.027.12a.605.605 0 01.112.053c.153.093.263.277.31.521.073.39-.029.81-.272 1.126-.175.23-.35.35-.533.371l-.025.002a3.367 3.367 0 01-.92 1.522v.639h.012v.098l3.534 1.197c.492.185.817.655.817 1.172v3.768h-.562v-3.768a.69.69 0 00-.444-.643l-3.345-1.131v2.049l-.795-.474-.177.973.582 2.868-.551.112-.603-2.973.234-1.286-.502-.299-.53.316.21 1.27-.602 2.972-.551-.112.581-2.87-.157-.95-.763.453v-2.075L4.992 16.63c-.259.1-.43.35-.43.636v3.777H4v-3.777c0-.52.312-.975.795-1.163l3.43-1.224-.032-.718-.053-.056a3.328 3.328 0 01-.803-1.458c-.153-.01-.342-.1-.55-.373a1.433 1.433 0 01-.272-1.125c.046-.244.155-.43.308-.522a.57.57 0 01.13-.056l-.012-.037c-.075-.265-.084-.646-.085-.687 0-2.3 1.26-3.781 3.208-3.781h.527zm.696 9.304h-2.5v1.19l1.25-.743 1.25.743v-1.19zM19.166 3v5.359H16.65l-1.965 1.965V8.432h-3.411V3h7.891zm-7.339 6c.345.297.465.708.477.754l.086.3-.541.154-.086-.303a1.122 1.122 0 00-.302-.479zm-1.237-.949v.563c-.152 0-.327.25-.383.364l-.016.03c-.588.911-1.97 1.098-2.028 1.106l-.018.002h-.16v-.562h.122c.142-.021 1.18-.203 1.603-.84.063-.12.368-.663.88-.663zm8.013-4.489h-6.767V7.87h3.411v1.096l1.17-1.17h2.186V3.563zM17.461 6.4v.562h-4.487V6.4h4.487zm0-1.687v.562h-4.507v-.562h4.507z"/>
  </defs>
  <g fill="none" fill-rule="evenodd">
    <mask id="b" fill="#fff">
      <use xlink:href="#a"/>
    </mask>
    <use fill="#4C525A" xlink:href="#a"/>
    <path fill="#53605E" mask="url(#b)" d="M0 0h24v24H0z"/>
  </g>
</svg>
