<?xml version="1.0" encoding="iso-8859-1"?>
<!-- Uploaded to: SVG Repo, www.svgrepo.com, Generator: SVG Repo Mixer Tools -->
<!DOCTYPE svg PUBLIC "-//W3C//DTD SVG 1.1//EN" "http://www.w3.org/Graphics/SVG/1.1/DTD/svg11.dtd">
<svg fill="#53605E" version="1.1" id="Capa_1" xmlns="http://www.w3.org/2000/svg" xmlns:xlink="http://www.w3.org/1999/xlink"
	 width="24" height="24" viewBox="0 0 55.656 55.656"
	 xml:space="preserve">
<g>
	<g>
		<path d="M32.33,48.617c1.203-1.203,1.865-2.803,1.865-4.504s-0.662-3.299-1.865-4.502s-2.803-1.865-4.504-1.865
			s-3.301,0.662-4.503,1.865c-2.482,2.482-2.482,6.522,0,9.006c1.203,1.203,2.803,1.865,4.504,1.865S31.128,49.82,32.33,48.617z
			 M24.738,41.025c0.825-0.826,1.922-1.281,3.089-1.281s2.266,0.455,3.09,1.281c0.825,0.824,1.279,1.922,1.279,3.088
			s-0.454,2.264-1.279,3.088c-0.824,0.826-1.922,1.279-3.089,1.279s-2.265-0.455-3.09-1.279
			C23.036,45.498,23.035,42.729,24.738,41.025z"/>
		<path d="M42.075,29.865c-3.806-3.804-8.865-5.9-14.247-5.9s-10.441,2.096-14.247,5.902c-0.188,0.188-0.293,0.441-0.293,0.707
			c0,0.265,0.105,0.52,0.293,0.707l5.062,5.061c0.391,0.391,1.023,0.391,1.414,0c2.075-2.075,4.835-3.219,7.771-3.219
			c2.937,0,5.695,1.144,7.771,3.219c0.194,0.195,0.451,0.293,0.707,0.293s0.512-0.098,0.707-0.293l5.062-5.062
			C42.466,30.889,42.466,30.257,42.075,29.865z M36.28,34.246c-2.353-2.021-5.318-3.123-8.452-3.123c-3.135,0-6.1,1.103-8.452,3.123
			l-3.654-3.653c3.332-2.992,7.594-4.628,12.106-4.628c4.513,0,8.774,1.636,12.106,4.627L36.28,34.246z"/>
		<path d="M27.828,5.174c-10.401,0-20.181,4.05-27.535,11.405c-0.391,0.391-0.391,1.023,0,1.414l7.34,7.34
			c0.375,0.375,1.039,0.375,1.414,0c5.017-5.017,11.686-7.779,18.78-7.779c7.094,0,13.766,2.763,18.782,7.78
			c0.188,0.188,0.441,0.293,0.707,0.293s0.52-0.105,0.707-0.293l7.34-7.341c0.391-0.391,0.391-1.023,0-1.414
			C48.008,9.224,38.229,5.174,27.828,5.174z M47.305,23.224c-5.307-4.954-12.185-7.671-19.479-7.671
			c-7.295,0-14.171,2.716-19.476,7.67l-5.928-5.928C9.311,10.76,18.293,7.173,27.826,7.173c9.532,0,18.516,3.587,25.404,10.122
			L47.305,23.224z"/>
	</g>
</g>
</svg>