<svg xmlns="http://www.w3.org/2000/svg" xmlns:xlink="http://www.w3.org/1999/xlink" width="24" height="24">
  <defs>
    <path id="a" d="M11.174 3.294a1.061 1.061 0 011.466-.001l5.702 5.703c.196.196.303.455.303.733 0 .276-.107.535-.303.732l-.404.403h2.672c.57 0 1.036.465 1.036 1.036v8.065c0 .571-.465 1.035-1.036 1.035H8.063a1.035 1.035 0 01-1.035-1.035v-1.611L2.303 13.63a1.037 1.037 0 010-1.464zm9.436 8.261H8.063a.346.346 0 00-.346.345v8.065c0 .19.155.345.346.345H20.61c.19 0 .345-.155.345-.345V11.9a.346.346 0 00-.345-.345zm-.72 6.042a.346.346 0 010 .69h-1.726a.345.345 0 010-.69zm-6.213 0a.346.346 0 010 .69h-1.725a.346.346 0 010-.69zm3.107 0a.346.346 0 010 .69h-1.727a.345.345 0 010-.69zm-6.214 0a.345.345 0 110 .69H8.845a.346.346 0 010-.69zm-3.542-3.371L5.45 15.8l1.577 1.576v-3.151zm5.013-.12c.191 0 .345.155.345.345v2.011c0 .19-.154.345-.345.345H8.845a.346.346 0 01-.346-.345v-2.01c0-.191.155-.346.346-.346zm-.345.69H9.19v1.32h2.507v-1.32zM13.04 4.67l-9.36 9.36 1.284 1.284 2.064-2.064V11.9c0-.571.463-1.036 1.035-1.036h1.35l4.91-4.91L13.04 4.67zm-1.132-.99a.343.343 0 00-.245.101L2.79 12.653a.347.347 0 000 .488l.4.401 9.36-9.36-.4-.4a.343.343 0 00-.243-.101zm2.903 2.761l-4.422 4.423h6.573l.892-.892a.347.347 0 000-.488l-3.043-3.043z"/>
  </defs>
  <g fill="none" fill-rule="evenodd">
    <mask id="b" fill="#fff">
      <use xlink:href="#a"/>
    </mask>
    <use fill="#000" xlink:href="#a"/>
    <path fill="#53605E" mask="url(#b)" d="M0 0h24v24H0z"/>
  </g>
</svg>
