<?xml version="1.0" encoding="UTF-8"?>
<svg width="261px" height="174px" viewBox="0 0 261 174" version="1.1" xmlns="http://www.w3.org/2000/svg" xmlns:xlink="http://www.w3.org/1999/xlink">
    <!-- Generator: Sketch 50.2 (55047) - http://www.bohemiancoding.com/sketch -->
    <title>download@3x</title>
    <desc>Created with Sketch.</desc>
    <defs>
        <path d="M2,0 L259,0 C260.104569,-2.02906125e-16 261,0.8954305 261,2 L261,174 L0,174 L0,2 C-1.3527075e-16,0.8954305 0.8954305,2.02906125e-16 2,0 Z" id="path-1"></path>
        <path d="M60.375,54.625 L60.375,14.375 C60.375,11.2125 57.7875,8.625 54.625,8.625 L14.375,8.625 C11.2125,8.625 8.625,11.2125 8.625,14.375 L8.625,54.625 C8.625,57.7875 11.2125,60.375 14.375,60.375 L54.625,60.375 C57.7875,60.375 60.375,57.7875 60.375,54.625 Z M24.4375,38.8125 L31.625,47.46625 L41.6875,34.5 L54.625,51.75 L14.375,51.75 L24.4375,38.8125 Z" id="path-3"></path>
    </defs>
    <g id="1-Otel-Homepage" stroke="none" stroke-width="1" fill="none" fill-rule="evenodd">
        <g id="Homepage_Extra-large-≥1200px" transform="translate(-390.000000, -948.000000)">
            <g id="download" transform="translate(390.000000, 948.000000)">
                <mask id="mask-2" fill="white">
                    <use xlink:href="#path-1"></use>
                </mask>
                <use id="Mask" fill="#EFEFEF" xlink:href="#path-1"></use>
                <g id="icon/image/image_24px" mask="url(#mask-2)">
                    <g transform="translate(96.000000, 53.000000)">
                        <mask id="mask-4" fill="white">
                            <use xlink:href="#path-3"></use>
                        </mask>
                        <g id="icon/image/image_24px" stroke="none" fill="none" fill-rule="nonzero"></g>
                        <g id="✱-/-Color-/-Pirimary-/-En_Grey" stroke="none" fill="none" mask="url(#mask-4)" fill-rule="evenodd">
                            <rect id="Rectangle" fill="#A8ADAF" x="0" y="0" width="69" height="69"></rect>
                        </g>
                    </g>
                </g>
            </g>
        </g>
    </g>
</svg>