<svg xmlns="http://www.w3.org/2000/svg" xmlns:xlink="http://www.w3.org/1999/xlink" width="18" height="18">
  <defs>
    <path id="a" d="M9.012.8c4.504.025 8.147 3.71 8.121 8.212-.024 4.504-3.709 8.147-8.212 8.121C4.418 17.11.775 13.424.801 8.921.824 4.418 4.508.775 9.011.801zm-.045.796a7.37 7.37 0 100 14.741 7.37 7.37 0 000-14.741zm2.477 3.192c.628 0 1.14.512 1.14 1.14V9.03c.74.08 1.288.486 1.288.992v2.856a.267.267 0 01-.265.267.267.267 0 01-.266-.267v-.274H4.592v.274a.267.267 0 01-.265.267.267.267 0 01-.266-.267v-2.856c0-.506.549-.912 1.29-.992V5.928c0-.628.51-1.14 1.139-1.14zm.874 4.76H5.615c-.574 0-1.02.255-1.02.474v1.182h8.744v-1.182c0-.22-.446-.473-1.02-.473zm-1.931-2.3H7.52a.17.17 0 00-.17.17v1.597h3.207V7.418a.17.17 0 00-.17-.17zm1.057-1.926H6.49a.607.607 0 00-.606.606v3.087h.932V7.418c0-.388.316-.704.704-.704h2.867c.388 0 .704.316.704.704v1.597h.959V5.928a.607.607 0 00-.606-.606z"/>
  </defs>
  <use fill="#1B2F6F" fill-rule="evenodd" xlink:href="#a"/>
</svg>
