<svg xmlns="http://www.w3.org/2000/svg" xmlns:xlink="http://www.w3.org/1999/xlink" width="24" height="24">
  <defs>
    <path id="a" d="M16.5 3C18.98 3 21 5.02 21 7.501c0 1.535-1.08 3.32-1.986 4.548a21.013 21.013 0 01-2.085 2.406l2.123-.932a1.397 1.397 0 011.081-.002c.348.144.62.413.762.76a1.409 1.409 0 01-.76 1.837L15.178 18.5c-.396.167-.801.25-1.22.25H9.543c-.255 0-.504.068-.722.2l-.936.562.135.216c.04.063.052.14.036.215a.292.292 0 01-.131.174l-1.405.843a.282.282 0 01-.385-.097.281.281 0 01.097-.385l1.158-.696-2.525-4.04-1.456.728a.282.282 0 01-.252-.504l1.686-.841a.284.284 0 01.366.102l.137.222a.28.28 0 01.048-.035l2.716-1.585.029-.016-.023-.025c-.91-.99-3.427-3.94-3.427-6.287A4.506 4.506 0 019.188 3c1.451 0 2.815.711 3.656 1.882A4.517 4.517 0 0116.5 3zm-2.534 10.968l-4.301.002a2.53 2.53 0 00-1.273.344l-2.715 1.585-.04.017 1.948 3.118.945-.567a1.96 1.96 0 011.012-.28h4.417c.342 0 .673-.068.987-.2l4.958-2.382a.85.85 0 00.472-1.11.843.843 0 00-.457-.453.83.83 0 00-.647-.002l-4.91 2.154a.28.28 0 01-.205.009 1.4 1.4 0 01-.191.013l-3.372.003a.281.281 0 010-.562l3.372-.001a.844.844 0 000-1.688zM16.5 3.562a3.947 3.947 0 00-3.411 1.98c-.103.172-.39.172-.49 0a3.945 3.945 0 00-3.412-1.98A3.943 3.943 0 005.25 7.5c0 2.219 2.572 5.15 3.363 5.996.022.024.04.051.052.08a3.02 3.02 0 011-.17l4.301-.001a1.407 1.407 0 011.367 1.73l-.025.018c1.842-1.436 5.13-5.22 5.13-7.653a3.943 3.943 0 00-3.938-3.94zm-2.257 3.375c.115 0 .223.065.267.173l1.334 3.202h1.782v.562h-1.97a.282.282 0 01-.26-.173l-1.124-2.7-1.445 4.093a.28.28 0 01-.246.187h-.018a.283.283 0 01-.253-.155L11.134 9.77l-.58.97a.286.286 0 01-.241.134h-2.25v-.562h2.09l.762-1.27a.269.269 0 01.254-.136.28.28 0 01.24.155l1.11 2.22 1.466-4.157c.04-.11.14-.183.258-.187z"/>
  </defs>
  <g fill="none" fill-rule="evenodd">
    <mask id="b" fill="#fff">
      <use xlink:href="#a"/>
    </mask>
    <use fill="#464646" xlink:href="#a"/>
    <path fill="#53605E" mask="url(#b)" d="M0 0h24v24H0z"/>
  </g>
</svg>
