<svg xmlns="http://www.w3.org/2000/svg" xmlns:xlink="http://www.w3.org/1999/xlink" width="24" height="24">
  <defs>
    <path id="a" d="M15.383 3.45h-.016c-.3.003-.824.089-.986.63-.105.354-.185 1.236-.079 1.572.115.36.502.74.88.864.335.11.94.199 1.286-.43.206-.372.401-1.11.432-1.425v-.002a1.05 1.05 0 00-.033-.427c-.134-.419-.825-.781-1.484-.781zm.251 3.595c-.188 0-.387-.033-.592-.1-.519-.17-1.01-.657-1.17-1.157-.146-.466-.031-1.468.078-1.837.177-.597.693-.944 1.412-.95.766.007 1.716.41 1.935 1.095.057.182.075.387.052.61-.036.356-.242 1.156-.486 1.598-.265.484-.705.741-1.229.741zM4.916 14.069c-.1 0-.185.074-.232.124-.186.197-.28.532-.21.746.047.138.157.221.338.254L9.01 16.25c.248.061.43-.018.543-.238l1.035-1.543-.411-.24a1.581 1.581 0 01-.773-1.166l-.775 1.377c-.06.1-.228.386-.604.296l-3.059-.662a.195.195 0 00-.05-.006zm5.86-6.263l1.681.334-2.297 3.553c-.278.407-.391.953-.293 1.397.074.33.255.584.539.751l2.895 1.692c.158.113.31.308.236.666l-1.149 3.724c-.074.317.182.473.343.536.29.115.695.084.829-.147l1.538-4.683c.125-.383.042-.707-.242-.939l-2.504-1.967L14.49 9.6l.68 1.924c.086.287.36.434.655.36l3.1-.856c.262-.065.437-.217.497-.428a.511.511 0 00-.105-.49c-.101-.106-.25-.14-.433-.093l-2.907.553-.426-2.165c-.3-.731-1.227-1.262-1.99-1.5a2.837 2.837 0 00-.776-.13l-2.065-.077c-.233-.012-.41.032-.539.132L7.377 8.997a.494.494 0 00-.216.458c.014.176.11.33.242.392.178.084.377-.012.512-.107l2.862-1.934zm2.29 13.167c-.174 0-.347-.033-.501-.094-.481-.191-.721-.612-.611-1.075l1.147-3.717c.025-.126-.02-.158-.046-.176l-2.077-1.213-1.037 1.544c-.196.386-.593.56-1.042.445l-4.181-1.054c-.329-.057-.572-.255-.67-.553-.14-.423.049-.922.31-1.197.21-.222.47-.313.715-.246l3.052.66c.044.012.057.015.114-.082l1.31-2.329c.062-.156.141-.305.235-.443l1.934-2.99-.845-.168-2.704 1.826c-.442.308-.79.223-.958.144-.28-.131-.47-.423-.499-.762a.937.937 0 01.398-.859l2.794-2.16c.216-.167.492-.245.834-.226l2.066.076c.353.018.594.058.89.15.861.27 1.914.885 2.286 1.803l.352 1.766 2.455-.466c.322-.081.639-.002.854.22a.966.966 0 01.214.926c-.106.368-.403.638-.816.741l-3.1.855c-.538.135-1.049-.148-1.198-.656l-.381-1.075-1.398 2.042 2.175 1.709c.432.35.573.87.39 1.43l-1.558 4.725c-.188.335-.546.48-.904.48z"/>
  </defs>
  <g fill="none" fill-rule="evenodd">
    <mask id="b" fill="#fff">
      <use xlink:href="#a"/>
    </mask>
    <use fill="#1D1D1B" xlink:href="#a"/>
    <path fill="#53605E" mask="url(#b)" d="M0 0h24v24H0z"/>
  </g>
</svg>
